<?xml version="1.0" standalone="no"?>
<!DOCTYPE svg PUBLIC "-//W3C//DTD SVG 20010904//EN"
 "http://www.w3.org/TR/2001/REC-SVG-20010904/DTD/svg10.dtd">
<svg version="1.0" xmlns="http://www.w3.org/2000/svg"
 width="256.000000pt" height="256.000000pt" viewBox="0 0 256.000000 256.000000"
 preserveAspectRatio="xMidYMid meet">

<g transform="translate(0.000000,256.000000) scale(0.100000,-0.100000)"
fill="#000000" stroke="none">
<path d="M1206 1949 c-67 -16 -157 -71 -188 -113 -32 -45 -63 -135 -49 -149 8
-8 120 -26 168 -27 17 0 28 12 45 47 29 59 75 86 137 80 66 -7 94 -40 99 -120
l4 -63 -99 -12 c-189 -22 -287 -69 -348 -167 -25 -41 -31 -61 -34 -128 -4 -98
9 -146 55 -197 48 -53 110 -75 205 -74 90 2 146 24 209 80 l42 38 21 -29 c30
-42 77 -85 92 -85 20 0 155 119 155 137 0 8 -11 29 -24 46 -41 56 -46 89 -46
316 0 119 -4 231 -10 250 -18 64 -59 109 -128 143 -59 29 -76 33 -166 35 -56
1 -118 -2 -140 -8z m214 -540 c0 -78 -15 -129 -52 -173 -87 -106 -220 -30
-188 108 16 74 94 125 193 126 l47 0 0 -61z"/>
</g>
</svg>
